# xmcd
#
# Track frame offsets:
#	150
#	17097
#	33867
#	48592
#	61770
#	76240
#
# Disc length: 1332 seconds
#
# Revision: 1
# Processed by: cddbd v1.5.1PL2 Copyright (c) Steve Scherf et al.
# Submitted via: audiograbber 1.83.01
#
DISCID=3d053206
DTITLE=Hobart Willis and The Back Forty - Introducing....
DYEAR=2001
DGENRE=Country Rock
TTITLE0=Needle The Groove
TTITLE1=Painted Picture
TTITLE2=Wicked Ways Of Love
TTITLE3=Here You Go Again
TTITLE4=Me, My Baby And The All Night Radio
TTITLE5=The Way We're Living
EXTD=
EXTT0=
EXTT1=
EXTT2=
EXTT3=
EXTT4=
EXTT5=
PLAYORDER=
